<svg version="1.2" xmlns="http://www.w3.org/2000/svg" viewBox="0 0 512 512" width="512" height="512">
	<title>agnostic</title>
	<defs>
		<clipPath clipPathUnits="userSpaceOnUse" id="cp1">
			<path d="m435.4 77v358.4h-358.4v-358.4z"/>
		</clipPath>
		<clipPath clipPathUnits="userSpaceOnUse" id="cp2">
			<path d="m1033.2 77v537.6h-956.2v-537.6z"/>
		</clipPath>
	</defs>
	<style>
		.s0 { fill: #10121b } 
		.s1 { fill: #f3f4f6 } 
	</style>
	<path id="Shape 1" fill-rule="evenodd" class="s0" d="m256 512c-141.6 0-256-114.4-256-256 0-141.6 114.4-256 256-256 141.6 0 256 114.4 256 256 0 141.6-114.4 256-256 256z"/>
	<g id="Clip-Path" clip-path="url(#cp1)">
		<g>
			<g id="Clip-Path" clip-path="url(#cp2)">
				<g>
					<path class="s1" d="m215.5 329.8l-24.4-24.5-0.1 0.1-3.9-4-61.3-61.3-24.4-24.4-24.4 24.4 23.7 23.8 62 61.9 23.8 23.9 62 62 23.8 23.7 79-79-10.8-10.8-13-13-54.6 54.6z"/>
					<path class="s1" d="m349.2 163.2c2.5-22.6-4.8-46.2-22.2-63.5-30.3-30.3-79.3-30.3-109.6 0l-91.6 91.6 23.8 23.7 91.6-91.6c17.1-17.1 44.9-17.1 62 0 16.8 16.8 17.1 43.8 1.1 61-0.4 0.3-0.8 0.6-1.1 1l-91.6 91.5 23.9 23.8 91.5-91.5c0.3-0.3 0.7-0.7 1-1.1 17.2-16 44.2-15.7 61 1.1 17.1 17.1 17.1 44.9 0 62l-37 37 23.7 23.8 37-37c30.3-30.3 30.3-79.3 0-109.6-17.3-17.4-40.9-24.7-63.5-22.2z"/>
				</g>
			</g>
		</g>
	</g>
</svg>