<?xml version="1.0" encoding="utf-8"?>
<!-- Generator: Adobe Illustrator 26.3.1, SVG Export Plug-In . SVG Version: 6.00 Build 0)  -->
<svg version="1.1" id="Layer_1" xmlns="http://www.w3.org/2000/svg" xmlns:xlink="http://www.w3.org/1999/xlink" x="0px" y="0px"
	 viewBox="0 0 84 83.8" style="enable-background:new 0 0 84 83.8;" xml:space="preserve">
<style type="text/css">
	.st0{fill:#1C3AA9;}
	.st1{fill:#4285F4;}
	.st2{fill:#ABABAB;}
</style>
<path class="st0" d="M84,41.8c0-0.6,0-1.2,0-1.8V6l-9.4,9.4C66.9,6,55.2,0,42.1,0C28.4,0,16.3,6.5,8.7,16.6l15.4,15.6
	c1.5-2.8,3.7-5.2,6.2-7c2.7-2.1,6.5-3.8,11.8-3.8c0.6,0,1.1,0.1,1.5,0.2c6.5,0.5,12.2,4.1,15.5,9.4L48.2,41.8
	C62,41.8,77.6,41.7,84,41.8"/>
<path class="st1" d="M41.8,0c-0.6,0-1.2,0-1.8,0H6l9.4,9.4C6,17.1,0,28.8,0,41.9c0,13.6,6.5,25.8,16.6,33.4l15.6-15.4
	c-2.8-1.5-5.2-3.7-7-6.2c-2.1-2.7-3.8-6.5-3.8-11.8c0-0.6,0.1-1.1,0.2-1.5c0.5-6.5,4.1-12.2,9.4-15.5l10.9,10.9
	C41.8,22,41.7,6.4,41.8,0"/>
<path class="st2" d="M0,41.9c0,0.6,0,1.2,0,1.8v34l9.4-9.4c7.7,9.4,19.4,15.4,32.5,15.4c13.6,0,25.8-6.5,33.4-16.6L59.9,51.6
	c-1.5,2.8-3.7,5.2-6.2,7c-2.7,2.1-6.5,3.8-11.8,3.8c-0.6,0-1.1-0.1-1.5-0.2c-6.5-0.5-12.2-4.1-15.5-9.4l10.9-10.9
	C22,42,6.4,42,0,41.9"/>
</svg>
